<svg version="1" xmlns="http://www.w3.org/2000/svg" width="666.667" height="666.667" viewBox="0 0 500.000000 500.000000"><path d="M231 25.6c-1.4.2-6.5.9-11.5 1.5-27.3 3.4-62.5 16.2-85 30.9-47.9 31.3-74.8 76-80.4 133.4-3.4 35 1.4 63.7 15.9 94.3 24.9 52.4 74.2 92.5 127.1 103.3 5.3 1.1 11.6 2 13.8 2 2.3 0 4.1.4 4.1.9 0 .8-15.3 8-33.8 15.7-16.1 6.8-29.2 11.1-39 13-12.3 2.3-18.3 4.8-24.2 10.1-7.3 6.6-9.4 11-8.8 19.4.9 12.6 7.4 19.9 17.5 19.9 9.3 0 14.1-3.6 16.4-12.2 1.6-5.8.5-10.9-3.1-14.7-3.5-3.6-3.1-5.4 2.3-9.5 7.4-5.7 19.3-7.7 30.1-5.2 8.4 2 15.2 4.7 38.1 15.1 46.4 21.2 67.4 26.9 99 26.8 13.7 0 19.1-.4 27.5-2.2 29.8-6.3 49.3-22 62.9-50.6 4.2-8.9 7.7-18.3 7-18.8-1.1-.9-10.2-5.7-10.4-5.5-.1.2-1.9 3.4-4 7.3-5.2 9.5-16.8 20.9-26.2 25.8-10.9 5.7-20.5 7.8-34.8 7.9-13.1 0-16.3-.7-50-10.6-18.4-5.4-38.6-9.9-52.9-11.7-8.9-1.1-21.4-.9-35.6.6-2.8.3 6.2-3.2 23-9 24-8.2 28.4-9.4 34.3-9.5 27.3-.1 63.9-9.1 91.2-22.5 55-26.8 90.6-72.8 101.1-130.7 2.2-12.1 2.9-35.2 1.5-49.8-5.9-61.8-35.8-108.3-88.7-138.3-30.5-17.2-73-28-109.4-27.6-6.9.1-13.6.3-15 .5zm45 13.9c48.9 13.5 86.1 57.4 98.9 116.6 5 23.3 6.8 59.6 4.1 81.9-6.3 51.7-28.5 96.2-59.8 119.7-43.9 33.1-107 30.5-148-6.1-32.1-28.7-52.9-73.2-57.3-122.6-1.7-20.1.6-50.7 5.7-73.4 11.1-49.9 37.8-87.8 74.9-106.3 10.5-5.3 20.1-8.7 30-10.6 12.4-2.5 13.1-2.6 28-2.2 11.3.3 15.8.9 23.5 3z"/><path d="M237 155c-5.8.4-10.8.8-11.2.9-.5 0-.8 1-.8 2.1 0 1.6.7 2 3.8 2 5.1 0 7.5 1.9 7.4 5.9-.1 3.6-4.2 22.3-5.1 23.3-.3.4-3 0-6-.9-18.1-5.3-36.4 6.8-41.7 27.7-3 11.9-.3 24.7 6.2 29.9 7.4 5.9 16.6 4.8 26.7-3.1 2.9-2.4 3.7-2.6 3.7-1.3 0 .9 1.4 3 3.1 4.7 2.8 2.8 3.4 3 8.3 2.5 6.3-.6 12.9-3.6 13.4-5.9.3-1.4-.3-1.6-3.2-1.1-5.2.8-8.3-.3-9-3.2-.4-1.6 2.7-17 8.4-41.6 4.9-21.5 9-39.9 9-41 0-1-.6-1.8-1.2-1.7-.7.1-6 .5-11.8.8zm-14.5 37.6c1.9.8 4 3 4.9 4.7 1.4 3 1.2 4.2-2.3 19.5-4.2 18-5.7 20.6-13.6 24.3-4.6 2.1-7.4 2.3-10.8.8-3.2-1.4-4.7-4.2-5.7-10.2-1.8-11.6 2.5-26.4 9.8-34.1 6.2-6.4 11.6-7.9 17.7-5zM285 189.1c-1.9 1.2-5.4 3.7-7.7 5.7l-4.3 3.4v-2.4c0-1.4-.9-3.7-2.1-5.2-1.7-2.2-2.8-2.6-7.2-2.5-6.3 0-14.1 2.8-14.5 5.1-.3 1.5.5 1.7 4.8 1.5 8.6-.3 8.7.2 2 29.7-2.8 12.1-5 22.3-5 22.8 0 .4 2.4.8 5.4.8 4.3 0 5.6-.4 6-1.8.2-.9 2.4-10.5 4.8-21.2 4-18.2 4.5-19.7 7.8-23.4 3.1-3.5 12.8-9.2 13.8-8.1.2.2-.1 1.8-.7 3.6-2.3 6.5-.4 9.9 5.4 9.9 4.9 0 7.5-3.7 7.5-10.6 0-4.5-.4-5.6-2.6-7.3-3.5-2.7-8.9-2.7-13.4 0zM306.2 235.3c-3.2 3.4-3 8.9.4 11.6 5.5 4.3 13.4.8 13.4-5.9 0-6.9-9.1-10.7-13.8-5.7zM383.5 457.9c2.9.6 3 .8 3.3 6.9.4 8.2 2.2 8 2.2-.2 0-6.3.1-6.5 2.8-6.9 1.5-.2-.4-.4-4.3-.4-4.4-.1-5.9.2-4 .6zM396 463.9c0 4.1.4 7.1 1 7.1s1-2.4 1.1-5.3v-5.2l2 5.3c1.2 2.9 2.6 5.1 3.1 5 .6-.2 1.8-2.2 2.7-4.5 2.4-6.1 3.1-6.2 3.1-.5 0 2.9.5 5.2 1 5.2.6 0 1-3 1-7 0-6.1-.2-7-1.8-7-1.3 0-2.3 1.5-3.6 5.6-1 3.1-2.1 5.3-2.4 4.9-.4-.3-1.4-2.7-2.3-5.3-.9-2.7-2.3-4.8-3.2-5-1.5-.3-1.7.7-1.7 6.7z"/></svg>