<?xml version="1.0" standalone="no"?>
<!DOCTYPE svg PUBLIC "-//W3C//DTD SVG 20010904//EN"
 "http://www.w3.org/TR/2001/REC-SVG-20010904/DTD/svg10.dtd">
<svg version="1.0" xmlns="http://www.w3.org/2000/svg"
 width="500.000000pt" height="500.000000pt" viewBox="0 0 500.000000 500.000000"
 preserveAspectRatio="xMidYMid meet">
<metadata>
Created by potrace 1.11, written by Peter Selinger 2001-2013
</metadata>
<g transform="translate(0.000000,500.000000) scale(0.100000,-0.100000)"
fill="#000000" stroke="none">
<path d="M2310 4744 c-14 -2 -65 -9 -115 -15 -273 -34 -625 -162 -850 -309
-479 -313 -748 -760 -804 -1334 -34 -350 14 -637 159 -943 249 -524 742 -925
1271 -1033 53 -11 116 -20 138 -20 23 0 41 -4 41 -9 0 -8 -153 -80 -338 -157
-161 -68 -292 -111 -390 -130 -123 -23 -183 -48 -242 -101 -73 -66 -94 -110
-88 -194 9 -126 74 -199 175 -199 93 0 141 36 164 122 16 58 5 109 -31 147
-35 36 -31 54 23 95 74 57 193 77 301 52 84 -20 152 -47 381 -151 464 -212
674 -269 990 -268 137 0 191 4 275 22 298 63 493 220 629 506 42 89 77 183 70
188 -11 9 -102 57 -104 55 -1 -2 -19 -34 -40 -73 -52 -95 -168 -209 -262 -258
-109 -57 -205 -78 -348 -79 -131 0 -163 7 -500 106 -184 54 -386 99 -529 117
-89 11 -214 9 -356 -6 -28 -3 62 32 230 90 240 82 284 94 343 95 273 1 639 91
912 225 550 268 906 728 1011 1307 22 121 29 352 15 498 -59 618 -358 1083
-887 1383 -305 172 -730 280 -1094 276 -69 -1 -136 -3 -150 -5z m450 -139
c489 -135 861 -574 989 -1166 50 -233 68 -596 41 -819 -63 -517 -285 -962
-598 -1197 -439 -331 -1070 -305 -1480 61 -321 287 -529 732 -573 1226 -17
201 6 507 57 734 111 499 378 878 749 1063 105 53 201 87 300 106 124 25 131
26 280 22 113 -3 158 -9 235 -30z"/>
<path d="M2370 3450 c-58 -4 -108 -8 -112 -9 -5 0 -8 -10 -8 -21 0 -16 7 -20
38 -20 51 0 75 -19 74 -59 -1 -36 -42 -223 -51 -233 -3 -4 -30 0 -60 9 -181
53 -364 -68 -417 -277 -30 -119 -3 -247 62 -299 74 -59 166 -48 267 31 29 24
37 26 37 13 0 -9 14 -30 31 -47 28 -28 34 -30 83 -25 63 6 129 36 134 59 3 14
-3 16 -32 11 -52 -8 -83 3 -90 32 -4 16 27 170 84 416 49 215 90 399 90 410 0
10 -6 18 -12 17 -7 -1 -60 -5 -118 -8z m-145 -376 c19 -8 40 -30 49 -47 14
-30 12 -42 -23 -195 -42 -180 -57 -206 -136 -243 -46 -21 -74 -23 -108 -8 -32
14 -47 42 -57 102 -18 116 25 264 98 341 62 64 116 79 177 50z"/>
<path d="M2850 3109 c-19 -12 -54 -37 -77 -57 l-43 -34 0 24 c0 14 -9 37 -21
52 -17 22 -28 26 -72 25 -63 0 -141 -28 -145 -51 -3 -15 5 -17 48 -15 86 3 87
-2 20 -297 -28 -121 -50 -223 -50 -228 0 -4 24 -8 54 -8 43 0 56 4 60 18 2 9
24 105 48 212 40 182 45 197 78 234 31 35 128 92 138 81 2 -2 -1 -18 -7 -36
-23 -65 -4 -99 54 -99 49 0 75 37 75 106 0 45 -4 56 -26 73 -35 27 -89 27
-134 0z"/>
<path d="M3062 2647 c-32 -34 -30 -89 4 -116 55 -43 134 -8 134 59 0 69 -91
107 -138 57z"/>
<path d="M3835 421 c29 -6 30 -8 33 -69 4 -82 22 -80 22 2 0 63 1 65 28 69 15
2 -4 4 -43 4 -44 1 -59 -2 -40 -6z"/>
<path d="M3960 361 c0 -41 4 -71 10 -71 6 0 10 24 11 53 l0 52 20 -53 c12 -29
26 -51 31 -50 6 2 18 22 27 45 24 61 31 62 31 5 0 -29 5 -52 10 -52 6 0 10 30
10 70 0 61 -2 70 -18 70 -13 0 -23 -15 -36 -56 -10 -31 -21 -53 -24 -49 -4 3
-14 27 -23 53 -9 27 -23 48 -32 50 -15 3 -17 -7 -17 -67z"/>
</g>
</svg>
